<svg xmlns="http://www.w3.org/2000/svg" width="148.096" height="30" viewBox="0 0 148.096 30">
  <g id="logo" transform="translate(-762.85 -623.21)">
    <path id="Path_13529" data-name="Path 13529" d="M780.522,629.407l-4.656,1.312a3.576,3.576,0,0,0-1.082-2A3.79,3.79,0,0,0,772,627.8a3.463,3.463,0,0,0-2.295.737,2.22,2.22,0,0,0-.885,1.754q0,1.8,2.295,2.23l3.115.59a8.6,8.6,0,0,1,4.967,2.508,6.427,6.427,0,0,1,1.754,4.476,6.881,6.881,0,0,1-2.328,5.131,8.714,8.714,0,0,1-6.262,2.213,9.511,9.511,0,0,1-6.8-2.279A8.138,8.138,0,0,1,762.85,640l4.754-1.147a4.369,4.369,0,0,0,1.36,2.869,4.849,4.849,0,0,0,3.459,1.131,3.867,3.867,0,0,0,2.394-.672,2.1,2.1,0,0,0,.885-1.754,1.952,1.952,0,0,0-.656-1.492,3.68,3.68,0,0,0-1.836-.836l-3.18-.59a8.14,8.14,0,0,1-4.639-2.394,6.306,6.306,0,0,1-1.689-4.426,6.779,6.779,0,0,1,2.459-5.344,8.664,8.664,0,0,1,5.869-2.132,11.043,11.043,0,0,1,3.689.574,6.766,6.766,0,0,1,2.573,1.525,8.376,8.376,0,0,1,1.492,1.967A7.148,7.148,0,0,1,780.522,629.407Z" fill="#292929"/>
    <path id="Path_13530" data-name="Path 13530" d="M790.554,625.9v4.754h3.18v4.361h-3.18v6.1q0,1.706,1.8,1.705a5.925,5.925,0,0,0,1.312-.164v4.131a5.911,5.911,0,0,1-2.59.459,5.485,5.485,0,0,1-3.984-1.41A5.082,5.082,0,0,1,785.636,642v-6.983h-2.885v-4.361h.819a2.361,2.361,0,0,0,1.886-.738,2.823,2.823,0,0,0,.639-1.918v-2.1Z" fill="#292929"/>
    <path id="Path_13531" data-name="Path 13531" d="M804.554,630.161a8.478,8.478,0,0,1,6.18,2.426,9.013,9.013,0,0,1,0,12.41,9,9,0,0,1-12.344-.016,8.93,8.93,0,0,1,0-12.377A8.462,8.462,0,0,1,804.554,630.161Zm0,12.689a3.574,3.574,0,0,0,2.606-1.049,4.049,4.049,0,0,0,1.066-3.017,3.992,3.992,0,0,0-1.066-3,3.761,3.761,0,0,0-5.2.017,3.961,3.961,0,0,0-1.082,2.983,4.017,4.017,0,0,0,1.082,3A3.557,3.557,0,0,0,804.554,642.85Z" fill="#292929"/>
    <path id="Path_13532" data-name="Path 13532" d="M826.783,630.653v4.918a6.835,6.835,0,0,0-1.573-.164,3.677,3.677,0,0,0-2.738,1.082,4.6,4.6,0,0,0-1.066,3.344v7.115h-4.983V630.653h4.819v2.2a3.626,3.626,0,0,1,1.8-1.8,5.772,5.772,0,0,1,2.426-.557A4.685,4.685,0,0,1,826.783,630.653Z" fill="#292929"/>
    <path id="Path_13533" data-name="Path 13533" d="M836.98,653.21h-5.246l3.705-8.459-6.853-14.1h5.574l3.967,8.721,3.607-8.721h5.279Z" fill="#292929"/>
    <path id="Path_13534" data-name="Path 13534" d="M869.537,646.948h-5.213V637.7h-9.279v9.246h-5.18V623.7h5.18v9.115h9.279V623.7h5.213Z" fill="#c43b72"/>
    <path id="Path_13535" data-name="Path 13535" d="M884.749,646.948a7.973,7.973,0,0,1-.131-1.639,3.679,3.679,0,0,1-1.8,1.492,6.567,6.567,0,0,1-2.557.508,5.83,5.83,0,0,1-4.541-1.82,6.491,6.491,0,0,1-1.656-4.541V630.653h4.984V639.9a3.016,3.016,0,0,0,.672,2.033,2.424,2.424,0,0,0,1.951.787,2.617,2.617,0,0,0,1.983-.771,2.791,2.791,0,0,0,.738-2.016v-9.279h4.984V644.03a23.726,23.726,0,0,0,.163,2.918Z" fill="#c43b72"/>
    <path id="Path_13536" data-name="Path 13536" d="M898.585,646.948h-4.819V623.21h4.885v8.984a4.157,4.157,0,0,1,1.836-1.377,7.162,7.162,0,0,1,2.885-.557,6.921,6.921,0,0,1,5.525,2.377,9.031,9.031,0,0,1,2.049,6.114,8.817,8.817,0,0,1-2.18,6.148,7.2,7.2,0,0,1-5.59,2.41,6.139,6.139,0,0,1-2.787-.607,4.238,4.238,0,0,1-1.8-1.59Zm7.378-8.164a4.025,4.025,0,0,0-1.05-3,3.588,3.588,0,0,0-2.622-1.033,3.646,3.646,0,0,0-2.64,1.033,4.727,4.727,0,0,0,.016,6,3.6,3.6,0,0,0,2.624,1.066,3.542,3.542,0,0,0,2.606-1.066A4.057,4.057,0,0,0,905.963,638.784Z" fill="#c43b72"/>
  </g>
</svg>
